<?xml version="1.0" encoding="UTF-8"?>
<svg xmlns="http://www.w3.org/2000/svg" xmlns:xlink="http://www.w3.org/1999/xlink" width="441px" height="447px" viewBox="0 0 441 446" version="1.1">
<g id="surface1">
<path style=" stroke:none;fill-rule:evenodd;fill:rgb(0%,0%,0%);fill-opacity:1;" d="M 242.316406 427.90625 C 240.496094 433.167969 234.859375 446.050781 221.050781 446.050781 C 205.410156 446.050781 200.144531 428.996094 199.78125 428.449219 L 199.417969 426.816406 C 199.417969 426.816406 212.867188 427.90625 220.136719 427.90625 C 227.589844 427.90625 240.320312 427.175781 242.316406 426.816406 L 242.316406 427.90625 "/>
<path style=" stroke:none;fill-rule:evenodd;fill:rgb(0%,0%,0%);fill-opacity:1;" d="M 283.40625 419.558594 L 286.675781 419.917969 C 282.675781 429.898438 275.949219 441.148438 262.3125 441.148438 C 249.234375 441.148438 242.867188 433.53125 239.953125 428.449219 L 237.773438 427.175781 C 237.773438 427.175781 260.316406 426.273438 283.40625 419.558594 "/>
<path style=" stroke:none;fill-rule:evenodd;fill:rgb(0%,0%,0%);fill-opacity:1;" d="M 159.421875 419.558594 L 156.148438 419.917969 C 159.964844 429.898438 166.875 441.148438 180.328125 441.148438 C 193.417969 441.148438 200.511719 433.167969 203.414062 428.449219 L 204.867188 427.175781 C 204.867188 427.175781 182.328125 426.273438 159.421875 419.558594 "/>
<path style=" stroke:none;fill-rule:evenodd;fill:rgb(100%,94.901961%,0%);fill-opacity:1;" d="M 232.140625 428.996094 C 229.957031 432.078125 228.5 431.898438 225.953125 431.898438 C 224.683594 431.898438 222.867188 432.988281 222.867188 434.800781 C 222.867188 436.253906 224.140625 437.523438 226.136719 437.523438 C 230.867188 437.523438 234.316406 431.175781 235.410156 428.449219 C 235.410156 428.449219 238.136719 428.265625 238.867188 428.265625 C 238.867188 428.265625 233.957031 442.789062 221.230469 442.789062 C 208.507812 442.789062 203.414062 428.449219 203.414062 428.449219 C 203.414062 428.449219 214.140625 428.996094 220.320312 428.996094 C 226.324219 428.996094 230.316406 428.996094 232.140625 428.996094 "/>
<path style=" stroke:none;fill-rule:evenodd;fill:rgb(100%,94.901961%,0%);fill-opacity:1;" d="M 281.582031 422.46875 C 273.402344 424.820312 267.40625 426.640625 253.589844 428.273438 C 253.589844 428.273438 253.949219 429.722656 257.039062 429.542969 C 258.132812 429.542969 258.320312 429.183594 258.863281 429.183594 C 259.59375 428.996094 261.046875 429.90625 260.859375 431.355469 C 260.679688 432.445312 259.765625 433.71875 256.675781 433.71875 C 253.589844 433.71875 249.949219 431.175781 248.140625 428.816406 C 248.140625 428.816406 246.316406 429.355469 244.503906 429.355469 C 244.503906 429.355469 250.3125 437.710938 261.949219 437.710938 C 274.855469 437.710938 279.585938 426.273438 281.582031 422.46875 "/>
<path style=" stroke:none;fill-rule:evenodd;fill:rgb(100%,87.45098%,0%);fill-opacity:1;" d="M 273.039062 430.628906 C 273.039062 428.632812 272.496094 426.816406 271.40625 425.183594 C 266.863281 426.273438 261.765625 427.175781 254.132812 428.265625 C 254.132812 428.449219 254.132812 428.632812 253.949219 428.808594 C 254.492188 429.175781 255.40625 429.539062 257.039062 429.539062 C 258.132812 429.539062 258.3125 429.175781 258.863281 429.175781 C 259.585938 428.996094 261.039062 429.898438 260.859375 431.351562 C 260.679688 432.441406 259.765625 433.710938 256.675781 433.710938 C 255.953125 433.710938 255.042969 433.53125 254.320312 433.351562 C 254.679688 434.621094 255.40625 435.890625 256.316406 436.980469 C 257.949219 437.519531 259.949219 437.703125 261.949219 437.703125 C 266.132812 437.703125 269.402344 436.613281 272.128906 434.800781 C 272.671875 433.53125 273.039062 432.078125 273.039062 430.628906 "/>
<path style=" stroke:none;fill-rule:evenodd;fill:rgb(100%,88.235294%,0%);fill-opacity:1;" d="M 272.859375 430.628906 C 272.859375 428.632812 272.316406 426.816406 271.222656 425.183594 C 266.863281 426.273438 261.769531 427.175781 254.320312 428.085938 C 254.320312 428.449219 254.136719 428.632812 254.136719 428.996094 C 254.679688 429.355469 255.410156 429.539062 257.039062 429.539062 C 258.132812 429.539062 258.320312 429.175781 258.863281 429.175781 C 259.59375 428.996094 261.046875 429.898438 260.859375 431.351562 C 260.679688 432.441406 259.765625 433.710938 256.675781 433.710938 C 255.953125 433.710938 255.222656 433.53125 254.320312 433.351562 C 254.863281 434.800781 255.585938 436.074219 256.503906 437.15625 C 258.132812 437.519531 259.953125 437.703125 261.949219 437.703125 C 266.132812 437.703125 269.222656 436.613281 271.953125 434.980469 C 272.496094 433.710938 272.859375 432.261719 272.859375 430.628906 "/>
<path style=" stroke:none;fill-rule:evenodd;fill:rgb(100%,89.019608%,0%);fill-opacity:1;" d="M 272.859375 430.628906 C 272.859375 428.632812 272.128906 426.816406 271.039062 425.363281 C 266.679688 426.273438 261.769531 427.175781 254.5 428.085938 C 254.320312 428.449219 254.320312 428.808594 254.320312 428.996094 C 254.679688 429.355469 255.585938 429.539062 257.039062 429.539062 C 258.132812 429.539062 258.320312 429.175781 258.863281 429.175781 C 259.59375 428.996094 261.046875 429.898438 260.859375 431.351562 C 260.679688 432.441406 259.765625 433.710938 256.675781 433.710938 C 255.953125 433.710938 255.222656 433.710938 254.5 433.351562 C 255.042969 434.800781 255.773438 436.074219 256.675781 437.15625 C 258.320312 437.519531 260.136719 437.703125 261.949219 437.703125 C 265.949219 437.703125 269.039062 436.613281 271.585938 435.164062 C 272.316406 433.710938 272.859375 432.261719 272.859375 430.628906 "/>
<path style=" stroke:none;fill-rule:evenodd;fill:rgb(100%,94.901961%,0%);fill-opacity:1;" d="M 161.066406 422.46875 C 169.425781 424.820312 175.242188 426.640625 189.242188 428.273438 C 189.242188 428.273438 188.691406 429.722656 185.785156 429.542969 C 184.511719 429.542969 184.328125 429.183594 183.96875 429.183594 C 183.058594 428.996094 181.789062 429.90625 181.964844 431.355469 C 181.964844 432.445312 182.882812 433.71875 185.972656 433.71875 C 189.058594 433.71875 192.699219 431.175781 194.515625 428.816406 C 194.515625 428.816406 196.332031 429.355469 198.332031 429.355469 C 198.332031 429.355469 192.332031 437.710938 180.699219 437.710938 C 167.792969 437.710938 163.0625 426.273438 161.066406 422.46875 "/>
<path style=" stroke:none;fill-rule:evenodd;fill:rgb(100%,94.901961%,0%);fill-opacity:1;" d="M 220.144531 354.226562 C 264.316406 354.226562 313.398438 327.191406 347.941406 287.992188 C 351.574219 283.820312 357.9375 275.652344 373.027344 275.652344 C 387.9375 275.652344 407.925781 289.445312 405.566406 314.125 C 403.746094 332.273438 377.933594 373.101562 333.582031 398.144531 C 289.222656 423.371094 248.503906 428.808594 220.144531 428.808594 C 191.78125 428.808594 150.878906 423.371094 106.527344 398.144531 C 62.351562 373.101562 36.351562 332.273438 34.722656 314.125 C 32.359375 289.445312 52.171875 275.652344 67.261719 275.652344 C 82.164062 275.652344 88.53125 283.820312 92.167969 287.992188 C 126.703125 327.191406 175.785156 354.226562 220.144531 354.226562 "/>
<path style=" stroke:none;fill-rule:evenodd;fill:rgb(0%,0%,0%);fill-opacity:1;" d="M 220.144531 352.78125 C 241.59375 352.78125 264.136719 346.253906 285.769531 335 C 308.132812 323.382812 329.398438 306.6875 346.667969 286.910156 C 348.671875 284.734375 351.210938 281.644531 355.390625 278.921875 C 359.574219 276.199219 365.027344 274.207031 373.027344 274.207031 C 373.753906 274.207031 374.664062 274.207031 375.574219 274.207031 C 382.84375 274.933594 390.664062 278.378906 396.84375 284.546875 C 403.019531 290.539062 407.203125 299.25 407.203125 310.320312 C 407.203125 311.589844 407.203125 312.855469 407.019531 314.3125 C 406.117188 324.65625 397.386719 342.257812 382.113281 360.226562 C 370.121094 374.199219 354.117188 388.351562 334.304688 399.605469 C 312.125 412.304688 290.675781 419.925781 271.222656 424.464844 C 251.777344 429 234.324219 430.273438 220.144531 430.273438 C 205.777344 430.273438 188.328125 429 168.878906 424.464844 C 149.613281 419.925781 128.15625 412.304688 105.796875 399.605469 C 86.164062 388.351562 69.984375 374.199219 57.988281 360.226562 C 42.71875 342.257812 33.992188 324.65625 33.085938 314.3125 C 32.902344 312.855469 32.902344 311.589844 32.902344 310.320312 C 32.902344 299.25 37.269531 290.539062 43.265625 284.546875 C 49.445312 278.378906 57.445312 274.933594 64.535156 274.207031 C 65.4375 274.207031 66.351562 274.207031 67.261719 274.207031 C 75.082031 274.207031 80.714844 276.199219 84.898438 278.921875 C 88.890625 281.644531 91.4375 284.734375 93.433594 286.910156 C 110.890625 306.6875 131.976562 323.382812 154.519531 335 C 175.96875 346.253906 198.691406 352.78125 220.144531 352.78125 Z M 220.144531 355.863281 C 198.148438 355.863281 174.875 349.335938 153.0625 337.898438 C 130.15625 326.105469 108.707031 309.230469 91.074219 289.082031 C 89.253906 286.910156 86.707031 284.003906 83.074219 281.644531 C 79.4375 279.285156 74.351562 277.289062 67.261719 277.289062 C 66.351562 277.289062 65.625 277.289062 64.894531 277.46875 C 58.351562 278.019531 51.078125 281.285156 45.625 286.726562 C 39.988281 292.351562 35.988281 300.160156 35.988281 310.320312 C 35.988281 311.589844 36.175781 312.855469 36.175781 314.132812 C 37.082031 323.925781 45.625 340.800781 60.351562 358.046875 C 72.167969 371.832031 87.988281 385.804688 107.433594 396.882812 C 129.429688 409.402344 150.519531 416.839844 169.609375 421.375 C 188.871094 425.910156 205.964844 427.183594 220.144531 427.183594 C 234.144531 427.183594 251.410156 425.910156 270.5 421.375 C 289.589844 416.839844 310.859375 409.402344 332.851562 396.882812 C 352.121094 385.804688 367.941406 371.832031 379.753906 358.046875 C 394.65625 340.800781 403.019531 323.925781 403.933594 314.132812 C 404.113281 312.855469 404.113281 311.589844 404.113281 310.320312 C 404.113281 300.160156 400.113281 292.351562 394.65625 286.726562 C 389.023438 281.285156 381.753906 278.019531 375.207031 277.46875 C 374.480469 277.289062 373.753906 277.289062 373.027344 277.289062 C 365.757812 277.289062 360.847656 279.285156 357.035156 281.644531 C 353.394531 284.003906 350.847656 286.910156 349.03125 289.082031 C 331.398438 309.230469 309.941406 326.105469 287.21875 337.898438 C 265.226562 349.335938 242.136719 355.863281 220.144531 355.863281 "/>
<path style=" stroke:none;fill-rule:evenodd;fill:rgb(88.627451%,5.490196%,5.490196%);fill-opacity:1;" d="M 87.257812 291.804688 L 86.714844 291.257812 C 83.257812 287.269531 78.34375 281.644531 66.894531 281.644531 C 60.171875 281.644531 52.535156 285.277344 47.449219 290.894531 C 43.628906 295.074219 39.265625 302.332031 40.359375 313.398438 C 41.8125 328.640625 66.167969 368.199219 109.253906 392.703125 C 143.976562 412.480469 181.242188 422.46875 219.777344 422.46875 C 258.136719 422.46875 295.402344 412.480469 330.125 392.703125 C 373.390625 368.199219 397.566406 328.640625 399.027344 313.398438 C 400.113281 302.332031 395.75 295.074219 391.929688 290.894531 C 387.027344 285.277344 379.386719 281.644531 372.660156 281.644531 C 361.027344 281.644531 356.121094 287.269531 352.664062 291.257812 L 352.121094 291.804688 C 315.039062 334.085938 264.316406 360.21875 219.777344 360.21875 C 175.0625 360.21875 124.34375 334.085938 87.257812 291.804688 "/>
<path style=" stroke:none;fill-rule:evenodd;fill:rgb(100%,94.901961%,0%);fill-opacity:1;" d="M 362.480469 242.078125 C 362.480469 220.847656 379.753906 203.613281 400.835938 203.613281 C 422.109375 203.613281 439.378906 220.847656 439.378906 242.078125 C 439.378906 263.3125 422.109375 280.554688 400.835938 280.554688 C 379.753906 280.554688 362.480469 263.3125 362.480469 242.078125 "/>
<path style=" stroke:none;fill-rule:evenodd;fill:rgb(0%,0%,0%);fill-opacity:1;" d="M 360.847656 242.078125 C 360.847656 231.015625 365.390625 221.03125 372.660156 213.773438 C 379.753906 206.515625 389.933594 202.152344 400.84375 202.152344 C 411.933594 202.152344 422.109375 206.515625 429.199219 213.773438 C 436.46875 221.03125 441.011719 231.015625 441.011719 242.078125 C 441.011719 253.148438 436.46875 263.128906 429.199219 270.386719 C 422.109375 277.644531 411.933594 282.1875 400.84375 282.1875 C 389.933594 282.1875 379.753906 277.644531 372.660156 270.386719 C 365.390625 263.128906 360.847656 253.148438 360.847656 242.078125 Z M 363.933594 242.078125 C 363.933594 252.246094 368.117188 261.496094 374.84375 268.214844 C 381.570312 274.929688 390.664062 278.914062 400.84375 278.914062 C 411.203125 278.914062 420.289062 274.929688 427.023438 268.214844 C 433.75 261.496094 437.742188 252.246094 437.742188 242.078125 C 437.742188 231.917969 433.75 222.667969 427.023438 216.125 C 420.289062 209.410156 411.203125 205.238281 400.84375 205.238281 C 390.664062 205.238281 381.570312 209.410156 374.84375 216.125 C 368.117188 222.667969 363.933594 231.917969 363.933594 242.078125 "/>
<path style=" stroke:none;fill-rule:evenodd;fill:rgb(100%,94.901961%,0%);fill-opacity:1;" d="M 1.453125 242.265625 C 1.453125 221.035156 18.722656 203.792969 39.988281 203.792969 C 61.257812 203.792969 78.53125 221.035156 78.53125 242.265625 C 78.53125 263.496094 61.257812 280.554688 39.988281 280.554688 C 18.722656 280.554688 1.453125 263.496094 1.453125 242.265625 "/>
<path style=" stroke:none;fill-rule:evenodd;fill:rgb(0%,0%,0%);fill-opacity:1;" d="M 0 242.265625 C 0 231.195312 4.363281 221.214844 11.632812 213.957031 C 18.902344 206.703125 28.902344 202.160156 39.988281 202.160156 C 51.078125 202.160156 61.082031 206.703125 68.355469 213.957031 C 75.625 221.214844 80.167969 231.195312 80.167969 242.265625 C 80.167969 253.15625 75.625 263.316406 68.355469 270.574219 C 61.082031 277.652344 51.078125 282.191406 39.988281 282.191406 C 28.902344 282.191406 18.902344 277.652344 11.632812 270.574219 C 4.363281 263.316406 0 253.15625 0 242.265625 Z M 3.089844 242.265625 C 3.089844 252.425781 7.265625 261.503906 13.992188 268.21875 C 20.539062 274.933594 29.8125 279.109375 39.988281 279.109375 C 50.175781 279.109375 59.441406 274.933594 66.167969 268.21875 C 72.898438 261.503906 76.890625 252.425781 76.890625 242.265625 C 76.890625 232.101562 72.898438 222.847656 66.167969 216.132812 C 59.441406 209.417969 50.175781 205.429688 39.988281 205.429688 C 29.8125 205.429688 20.539062 209.417969 13.992188 216.132812 C 7.265625 222.847656 3.089844 232.101562 3.089844 242.265625 "/>
<path style=" stroke:none;fill-rule:evenodd;fill:rgb(0%,0%,5.882353%);fill-opacity:0.941176;" d="M 411.382812 138.828125 L 411.746094 128.488281 C 414.835938 130.84375 420.832031 131.023438 424.289062 127.210938 C 425.921875 125.578125 426.835938 122.863281 426.652344 120.140625 C 426.472656 117.050781 425.199219 113.964844 422.835938 111.792969 C 409.921875 99.089844 398.476562 86.566406 398.476562 86.566406 C 397.203125 84.566406 395.386719 83.296875 394.296875 82.753906 C 392.660156 82.027344 387.027344 79.484375 382.84375 86.019531 C 379.023438 91.832031 379.566406 100.171875 380.296875 103.257812 L 392.472656 119.777344 C 396.472656 125.035156 408.292969 136.105469 411.382812 138.828125 "/>
<path style=" stroke:none;fill-rule:evenodd;fill:rgb(13.72549%,12.156863%,12.54902%);fill-opacity:1;" d="M 152.335938 31.757812 C 167.605469 26.675781 181.414062 22.5 200.324219 20.6875 L 152.335938 31.757812 "/>
<path style=" stroke:none;fill-rule:evenodd;fill:rgb(0%,0%,0%);fill-opacity:1;" d="M 152.335938 31.757812 C 167.605469 26.675781 181.414062 22.5 200.324219 20.871094 L 203.234375 19.238281 C 192.691406 10.890625 182.144531 5.265625 171.785156 5.265625 C 165.238281 5.265625 151.964844 9.800781 149.058594 33.03125 L 152.335938 31.757812 "/>
<path style=" stroke:none;fill-rule:evenodd;fill:rgb(0%,0%,0%);fill-opacity:1;" d="M 287.949219 31.757812 C 272.679688 26.675781 258.679688 22.5 239.953125 20.871094 L 237.050781 19.238281 C 247.589844 10.890625 257.957031 5.265625 268.316406 5.265625 C 274.855469 5.265625 288.128906 9.800781 291.039062 33.03125 L 287.949219 31.757812 "/>
<path style=" stroke:none;fill-rule:evenodd;fill:rgb(13.72549%,12.156863%,12.54902%);fill-opacity:1;" d="M 207.601562 18.515625 C 210.691406 18.335938 217.78125 18.152344 220.695312 18.152344 C 223.597656 18.152344 231.414062 18.515625 233.230469 18.695312 L 207.601562 18.515625 "/>
<path style=" stroke:none;fill-rule:evenodd;fill:rgb(0%,0%,0%);fill-opacity:1;" d="M 202.871094 19.960938 C 210.503906 5.265625 217.597656 0 221.410156 0 C 226.324219 0 231.957031 7.617188 236.5 17.605469 L 237.40625 19.960938 L 233.59375 19.597656 C 230.867188 19.050781 223.597656 19.050781 220.6875 19.050781 C 217.78125 19.050781 211.59375 19.050781 207.78125 19.238281 L 202.871094 19.960938 "/>
<path style=" stroke:none;fill-rule:evenodd;fill:rgb(100%,94.901961%,0%);fill-opacity:1;" d="M 187.78125 368.386719 L 180.871094 393.976562 L 167.96875 363.121094 L 160.148438 360.941406 L 150.332031 397.242188 L 159.0625 399.417969 L 165.964844 373.652344 L 179.054688 404.863281 L 186.6875 406.863281 L 196.503906 370.746094 L 187.78125 368.386719 "/>
<path style=" stroke:none;fill-rule:evenodd;fill:rgb(100%,94.901961%,0%);fill-opacity:1;" d="M 217.597656 372.921875 L 207.78125 372.378906 L 205.777344 409.945312 L 215.777344 410.488281 L 217.597656 372.921875 "/>
<path style=" stroke:none;fill-rule:evenodd;fill:rgb(100%,94.901961%,0%);fill-opacity:1;" d="M 226.503906 372.5625 L 227.234375 377.464844 L 237.78125 376.003906 L 242.324219 408.3125 L 252.140625 406.863281 L 247.597656 374.742188 L 257.957031 373.289062 L 257.226562 368.386719 L 226.503906 372.5625 "/>
<path style=" stroke:none;fill-rule:evenodd;fill:rgb(100%,94.901961%,0%);fill-opacity:1;" d="M 328.308594 357.308594 C 333.21875 365.660156 332.125 371.832031 324.855469 376 L 321.398438 378.003906 L 307.582031 354.226562 L 311.222656 352.050781 C 320.125 346.96875 325.03125 351.324219 328.308594 357.308594 Z M 309.222656 347.332031 L 296.492188 354.769531 L 315.222656 387.4375 L 327.945312 380 C 341.03125 372.554688 342.304688 361.121094 337.21875 351.867188 C 330.855469 340.980469 320.675781 340.796875 309.222656 347.332031 "/>
<path style=" stroke:none;fill-rule:evenodd;fill:rgb(100%,94.901961%,0%);fill-opacity:1;" d="M 285.222656 393.609375 L 281.582031 382 L 292.679688 378.367188 L 291.039062 373.652344 L 279.949219 377.28125 L 276.859375 367.484375 L 288.136719 363.671875 L 286.675781 358.949219 L 265.777344 365.84375 L 277.402344 401.417969 L 300.492188 393.976562 L 298.859375 389.257812 L 285.222656 393.609375 "/>
<path style=" stroke:none;fill-rule:evenodd;fill:rgb(100%,94.901961%,0%);fill-opacity:1;" d="M 142.335938 352.234375 L 131.066406 372.375 C 127.796875 378.367188 124.339844 382.171875 118.703125 378.914062 C 113.066406 375.824219 114.339844 371.109375 117.792969 364.941406 L 128.882812 344.796875 L 119.976562 339.890625 L 108.164062 361.128906 C 101.617188 372.742188 109.796875 380 116.15625 383.632812 C 123.066406 387.261719 133.0625 390.160156 139.421875 378.546875 L 151.25 357.136719 L 142.335938 352.234375 "/>
<path style=" stroke:none;fill-rule:evenodd;fill:rgb(100%,94.901961%,0%);fill-opacity:1;" d="M 135.972656 131.746094 L 135.972656 307.589844 L 220.136719 361.484375 L 304.304688 307.589844 L 304.304688 132.113281 C 301.761719 129.753906 296.125 124.488281 291.582031 121.773438 L 148.152344 121.773438 C 144.515625 124.308594 137.0625 130.480469 135.972656 131.746094 "/>
<path style=" stroke:none;fill-rule:evenodd;fill:rgb(0%,0%,0%);fill-opacity:1;" d="M 137.425781 131.746094 L 137.425781 306.683594 L 220.136719 359.671875 L 302.671875 306.683594 L 302.671875 132.113281 L 305.941406 132.113281 L 305.761719 307.589844 L 305.761719 308.3125 L 305.035156 308.863281 L 220.863281 362.941406 L 220.136719 363.484375 L 219.226562 362.941406 L 135.066406 308.863281 L 134.335938 308.3125 L 134.335938 131.746094 L 137.425781 131.746094 "/>
<path style=" stroke:none;fill-rule:evenodd;fill:rgb(13.72549%,12.156863%,12.54902%);fill-opacity:1;" d="M 303.214844 133.382812 C 302.488281 132.660156 303.03125 133.203125 302.304688 132.472656 C 299.402344 129.753906 294.671875 125.402344 290.851562 123.222656 L 292.492188 120.5 C 296.488281 123.042969 301.398438 127.398438 304.488281 130.121094 C 304.488281 130.121094 304.125 129.753906 305.398438 130.84375 L 303.214844 133.382812 "/>
<path style=" stroke:none;fill-rule:nonzero;fill:rgb(0%,0%,0%);fill-opacity:1;" d="M 148.152344 120.132812 L 148.152344 123.402344 L 291.582031 123.402344 L 291.582031 120.132812 Z M 148.152344 120.132812 "/>
<path style=" stroke:none;fill-rule:evenodd;fill:rgb(13.72549%,12.156863%,12.54902%);fill-opacity:1;" d="M 149.0625 123.035156 C 147.242188 124.308594 144.882812 126.308594 142.699219 128.113281 C 139.972656 130.121094 137.792969 132.289062 137.0625 132.835938 L 134.703125 130.84375 C 135.429688 129.933594 137.972656 127.753906 140.703125 125.578125 C 143.058594 123.578125 145.425781 121.585938 147.242188 120.496094 L 149.0625 123.035156 "/>
<path style=" stroke:none;fill-rule:evenodd;fill:rgb(88.627451%,5.490196%,5.490196%);fill-opacity:1;" d="M 225.953125 207.0625 C 225.410156 206.703125 223.410156 208.332031 222.316406 209.964844 C 221.410156 211.417969 221.230469 213.417969 222.503906 214.140625 C 223.777344 214.867188 225.59375 213.957031 225.953125 211.597656 C 226.136719 210.144531 226.683594 207.242188 225.953125 207.0625 Z M 209.960938 211.597656 C 210.320312 213.957031 211.957031 214.867188 213.417969 214.140625 C 214.683594 213.417969 214.503906 211.417969 213.417969 209.964844 C 212.5 208.332031 210.503906 206.703125 209.960938 207.0625 C 209.410156 207.242188 209.777344 210.144531 209.960938 211.597656 Z M 218.324219 234.828125 C 221.230469 230.292969 222.316406 225.390625 222.316406 225.390625 L 214.324219 225.390625 C 214.324219 225.390625 215.59375 230.292969 218.324219 234.828125 Z M 219.777344 200.167969 L 226.324219 188.734375 L 231.410156 200.167969 L 239.773438 200.167969 C 234.6875 204.882812 232.683594 212.144531 232.683594 216.863281 L 232.683594 222.125 C 232.683594 224.304688 231.597656 227.933594 231.597656 227.933594 C 231.597656 227.933594 238.867188 233.558594 239.953125 234.46875 C 240.496094 234.828125 241.042969 235.191406 240.683594 236.097656 C 240.132812 237.730469 235.046875 239.90625 234.5 240.453125 C 233.414062 241.363281 233.226562 241.90625 233.414062 242.988281 C 233.773438 243.90625 234.6875 244.078125 236.683594 243.355469 C 238.5 242.816406 242.5 240.632812 245.957031 239.363281 C 249.226562 237.910156 253.769531 238.09375 253.769531 238.09375 L 253.769531 231.738281 L 241.042969 231.738281 L 241.042969 211.417969 L 238.867188 207.964844 L 244.503906 197.984375 L 249.949219 207.964844 L 247.773438 211.417969 L 247.773438 222.125 L 254.320312 222.125 L 254.320312 211.417969 L 251.953125 207.964844 L 257.589844 197.984375 L 263.222656 207.964844 L 261.046875 211.417969 L 261.046875 222.125 L 267.398438 222.125 L 267.398438 211.417969 L 265.226562 207.964844 L 270.675781 197.984375 L 276.3125 207.964844 L 274.132812 211.417969 L 274.132812 231.738281 L 261.589844 231.738281 L 261.589844 241.175781 C 264.308594 243.90625 267.035156 249.886719 267.035156 253.699219 C 267.035156 257.328125 264.679688 258.78125 264.679688 258.78125 C 265.589844 261.683594 265.402344 262.957031 265.039062 265.496094 C 264.679688 268.21875 261.40625 272.394531 261.40625 272.394531 L 261.40625 320.839844 C 261.40625 324.292969 253.769531 323.925781 253.769531 321.027344 L 253.769531 273.484375 C 249.40625 268.761719 237.59375 265.136719 237.59375 265.136719 C 233.226562 269.308594 230.503906 276.929688 230.503906 276.929688 C 232.5 278.191406 235.410156 276.929688 236.5 275.65625 C 237.59375 274.386719 239.773438 274.019531 241.042969 274.75 C 242.316406 275.65625 242.679688 275.839844 242.136719 277.832031 C 241.773438 279.652344 240.863281 282.914062 240.863281 285.097656 C 240.863281 287.269531 243.589844 286.910156 245.40625 287.089844 C 249.226562 287.269531 249.949219 291.625 249.589844 293.984375 C 249.226562 296.347656 248.132812 301.429688 248.132812 304.695312 C 248.132812 307.777344 248.316406 311.042969 248.683594 312.855469 C 248.859375 314.492188 249.589844 316.488281 249.40625 318.667969 C 249.226562 321.75 247.410156 322.117188 245.40625 320.300781 C 243.589844 318.304688 216.867188 290 216.867188 290 C 215.050781 295.796875 222.503906 305.597656 224.867188 308.679688 C 227.226562 311.589844 227.046875 313.945312 225.050781 315.9375 C 222.867188 318.121094 218.867188 319.210938 218.140625 321.027344 C 217.410156 323.023438 220.136719 328.648438 225.59375 335.90625 C 231.226562 342.980469 219.226562 347.886719 212.136719 349.148438 C 204.867188 350.601562 204.867188 345.703125 205.417969 342.980469 C 205.960938 340.257812 205.960938 338.808594 205.777344 336.265625 C 205.597656 333.910156 203.414062 330.640625 200.324219 326.652344 C 197.234375 322.65625 197.234375 319.027344 198.503906 309.773438 C 199.78125 300.519531 199.417969 294.707031 199.417969 294.707031 C 199.417969 294.707031 196.324219 294.894531 191.78125 294.707031 C 187.058594 294.535156 183.238281 291.804688 182.875 280.734375 C 182.6875 269.484375 182.328125 242.988281 181.601562 240.273438 C 180.871094 237.363281 177.964844 236.820312 176.691406 236.640625 C 175.238281 236.273438 175.238281 234.28125 176.511719 233.738281 C 179.785156 232.105469 183.78125 227.933594 182.328125 225.390625 C 180.871094 222.847656 175.054688 223.390625 171.054688 225.390625 C 167.054688 227.203125 163.0625 231.378906 161.96875 232.46875 C 160.878906 233.738281 159.964844 233.738281 160.148438 232.46875 C 160.148438 231.195312 159.421875 225.210938 158.878906 223.03125 C 158.332031 220.855469 156.335938 216.863281 155.785156 215.773438 C 155.0625 214.679688 155.785156 214.320312 156.878906 214.679688 C 157.96875 215.230469 160.148438 216.132812 162.511719 216.679688 C 164.695312 217.402344 166.875 216.3125 167.96875 214.140625 C 168.878906 212.144531 171.054688 207.605469 171.96875 205.429688 C 173.058594 203.429688 174.875 203.980469 176.148438 204.152344 C 177.601562 204.519531 178.875 205.429688 180.148438 205.972656 C 181.414062 206.519531 182.507812 206.332031 182.875 205.792969 C 183.238281 205.070312 183.78125 204.882812 184.503906 203.25 C 185.234375 201.617188 186.328125 202.347656 186.328125 203.070312 C 190.144531 225.933594 200.144531 226.84375 200.144531 226.84375 C 198.691406 230.835938 195.050781 236.820312 194.328125 238.28125 C 193.417969 239.726562 193.054688 241.726562 192.875 243.355469 C 192.691406 244.988281 193.417969 260.046875 194.507812 265.496094 C 195.601562 271.121094 198.871094 268.941406 199.960938 267.308594 C 201.054688 265.496094 204.324219 258.601562 204.324219 258.601562 C 204.324219 258.601562 205.230469 256.601562 205.230469 254.96875 C 205.230469 253.515625 202.507812 249.886719 201.777344 248.800781 C 201.234375 247.890625 198.871094 245.710938 198.871094 240.453125 C 198.871094 235.191406 203.601562 231.378906 205.230469 229.933594 C 207.050781 228.65625 207.050781 226.660156 206.863281 225.570312 C 205.960938 221.398438 201.597656 212.867188 199.59375 209.605469 C 197.417969 206.160156 193.234375 199.984375 193.234375 199.984375 L 201.960938 199.984375 L 207.414062 188.554688 L 213.417969 199.984375 Z M 253.769531 257.871094 L 253.769531 251.335938 C 253.769531 251.335938 251.953125 248.621094 247.589844 248.621094 C 243.410156 248.621094 240.863281 249.886719 240.863281 250.976562 C 240.863281 252.789062 244.675781 257.871094 253.769531 257.871094 "/>
<path style=" stroke:none;fill-rule:nonzero;fill:rgb(88.627451%,5.490196%,5.490196%);fill-opacity:1;" d="M 142.515625 175.664062 L 142.515625 186.1875 L 297.765625 186.1875 L 297.765625 175.664062 Z M 142.515625 175.664062 "/>
<path style=" stroke:none;fill-rule:nonzero;fill:rgb(88.627451%,5.490196%,5.490196%);fill-opacity:1;" d="M 142.515625 128.121094 L 142.515625 170.222656 L 297.765625 170.222656 L 297.765625 128.121094 Z M 142.515625 128.121094 "/>
<path style=" stroke:none;fill-rule:evenodd;fill:rgb(100%,94.901961%,0%);fill-opacity:1;" d="M 267.222656 171.492188 L 267.222656 164.234375 L 255.953125 164.234375 L 255.953125 159.691406 L 265.226562 159.691406 L 265.226562 139.371094 L 256.675781 139.371094 L 253.769531 133.746094 L 250.859375 139.371094 L 242.503906 139.371094 L 242.503906 159.691406 L 251.773438 159.691406 L 251.773438 164.234375 L 229.59375 164.234375 L 229.59375 159.691406 L 238.867188 159.691406 L 238.867188 139.371094 L 230.316406 139.371094 L 227.414062 133.746094 L 224.6875 139.371094 L 216.136719 139.371094 L 216.136719 159.691406 L 225.410156 159.691406 L 225.410156 164.234375 L 202.871094 164.234375 L 202.871094 159.691406 L 212.136719 159.691406 L 212.136719 139.371094 L 203.601562 139.371094 L 200.6875 133.746094 L 197.777344 139.371094 L 189.414062 139.371094 L 189.414062 159.691406 L 198.691406 159.691406 L 198.691406 164.234375 L 180.871094 164.414062 L 163.0625 160.234375 L 166.695312 171.492188 L 267.222656 171.492188 "/>
<path style=" stroke:none;fill-rule:evenodd;fill:rgb(100%,94.901961%,0%);fill-opacity:1;" d="M 169.238281 159.332031 L 181.054688 162.234375 L 187.417969 144.265625 L 187.417969 139.730469 L 169.238281 159.332031 "/>
<path style=" stroke:none;fill-rule:evenodd;fill:rgb(100%,94.901961%,0%);fill-opacity:1;" d="M 197.960938 19.597656 C 179.417969 21.230469 168.148438 25.222656 153.058594 30.125 C 154.332031 23.773438 155.785156 19.960938 158.332031 16.152344 C 158.148438 19.417969 160.878906 23.042969 166.332031 23.042969 C 171.785156 23.042969 174.6875 19.960938 174.6875 17.964844 C 174.6875 16.152344 173.601562 13.429688 170.695312 13.429688 C 167.785156 13.429688 167.054688 15.605469 167.417969 16.328125 C 167.605469 17.242188 166.875 17.417969 166.152344 17.605469 C 165.238281 17.785156 162.875 16.515625 163.785156 13.613281 C 164.695312 10.527344 168.511719 8.710938 173.238281 8.710938 C 173.238281 8.710938 184.144531 8.347656 197.960938 19.597656 "/>
<path style=" stroke:none;fill-rule:evenodd;fill:rgb(100%,94.901961%,0%);fill-opacity:1;" d="M 287.21875 30.308594 C 272.128906 25.222656 260.316406 21.417969 241.957031 19.785156 C 250.3125 13.792969 258.320312 8.894531 267.042969 8.894531 C 271.585938 8.894531 275.40625 10.527344 276.3125 13.792969 C 277.222656 16.703125 274.855469 17.964844 274.132812 17.792969 C 273.222656 17.425781 272.679688 17.242188 272.859375 16.515625 C 273.039062 15.613281 272.496094 13.617188 269.582031 13.617188 C 266.679688 13.617188 265.402344 16.335938 265.402344 18.152344 C 265.402344 19.964844 268.496094 23.050781 273.953125 23.050781 C 279.226562 23.050781 281.945312 19.605469 281.765625 16.335938 C 284.5 19.964844 286.128906 23.960938 287.21875 30.308594 "/>
<path style=" stroke:none;fill-rule:evenodd;fill:rgb(100%,94.901961%,0%);fill-opacity:1;" d="M 209.234375 16.152344 C 208.691406 17.058594 208.332031 17.605469 207.78125 18.507812 C 210.871094 18.335938 217.960938 18.148438 220.6875 18.148438 C 223.597656 18.148438 231.226562 18.507812 233.050781 18.695312 C 230.136719 12.339844 225.050781 3.445312 221.410156 3.445312 C 220.6875 3.445312 219.054688 3.082031 216.136719 6.535156 C 216.136719 6.535156 215.777344 7.988281 217.597656 7.804688 C 219.957031 7.445312 220.867188 9.800781 220.6875 11.070312 C 220.320312 13.972656 216.867188 16.695312 213.597656 16.695312 C 210.328125 16.695312 209.234375 16.152344 209.234375 16.152344 "/>
<path style=" stroke:none;fill-rule:evenodd;fill:rgb(0%,0%,0%);fill-opacity:1;" d="M 48.714844 119.773438 L 60.894531 103.257812 C 61.625 100.167969 62.167969 91.824219 58.351562 86.019531 C 53.988281 79.484375 48.351562 82.019531 46.71875 82.75 C 45.804688 83.296875 43.808594 84.566406 42.71875 86.5625 C 42.71875 86.5625 30.902344 99.445312 17.996094 111.964844 C 16.355469 113.777344 14.179688 117.050781 13.992188 120.132812 C 13.992188 122.855469 15.082031 125.578125 16.542969 127.390625 C 20.175781 131.023438 26.359375 130.835938 29.449219 128.480469 L 29.628906 138.824219 C 32.902344 136.101562 44.539062 125.03125 48.714844 119.773438 "/>
<path style=" stroke:none;fill-rule:evenodd;fill:rgb(100%,94.901961%,0%);fill-opacity:1;" d="M 220.144531 95.636719 C 289.402344 95.636719 328.851562 160.609375 337.394531 172.039062 C 352.664062 192.359375 371.394531 208.875 393.023438 203.429688 C 425.019531 195.445312 423.203125 148.261719 423.203125 148.261719 C 415.5625 142.636719 402.476562 135.746094 378.664062 101.992188 C 355.210938 68.960938 302.308594 19.785156 220.144531 19.785156 C 137.792969 19.785156 84.898438 68.960938 61.445312 101.992188 C 37.632812 135.746094 24.539062 142.636719 16.90625 148.261719 C 16.90625 148.261719 15.269531 195.445312 47.085938 203.429688 C 68.714844 208.875 87.4375 192.359375 102.707031 172.039062 C 111.25 160.609375 150.699219 95.636719 220.144531 95.636719 "/>
<path style=" stroke:none;fill-rule:evenodd;fill:rgb(0%,0%,0%);fill-opacity:1;" d="M 220.144531 94.1875 C 284.5 94.1875 323.394531 149.351562 335.941406 167.316406 C 337.03125 168.957031 338.125 170.21875 338.667969 171.128906 C 346.304688 181.109375 354.667969 190.179688 363.761719 196.171875 C 372.660156 201.796875 382.300781 204.519531 392.660156 201.980469 C 421.019531 194.722656 421.75 155.15625 421.75 148.988281 C 421.019531 148.628906 420.476562 148.085938 419.75 147.726562 C 411.746094 142.09375 398.839844 133.203125 377.390625 102.894531 C 363.933594 83.84375 340.671875 59.523438 307.582031 42.46875 C 283.585938 29.945312 254.5 21.417969 220.144531 21.417969 C 185.785156 21.417969 156.515625 29.945312 132.519531 42.46875 C 99.4375 59.523438 76.167969 83.84375 62.898438 102.894531 C 41.449219 133.203125 28.539062 142.09375 20.355469 147.726562 C 19.8125 148.085938 19.089844 148.628906 18.539062 148.988281 C 18.359375 155.15625 19.089844 194.722656 47.449219 201.980469 C 57.808594 204.519531 67.441406 201.796875 76.527344 196.171875 C 85.621094 190.179688 93.984375 181.109375 101.433594 171.128906 C 102.160156 170.21875 103.078125 168.957031 104.164062 167.316406 C 116.886719 149.351562 155.609375 94.1875 220.144531 94.1875 Z M 220.144531 97.269531 C 157.246094 97.269531 119.246094 151.53125 106.707031 169.128906 C 105.617188 170.769531 104.886719 172.039062 103.980469 172.941406 C 96.347656 183.289062 87.617188 192.726562 78.171875 198.714844 C 68.527344 205.0625 57.988281 207.785156 46.71875 205.0625 C 13.628906 196.535156 15.269531 148.261719 15.269531 148.261719 L 15.269531 147.355469 L 15.996094 146.996094 C 16.90625 146.265625 17.628906 145.726562 18.722656 144.996094 C 26.535156 139.738281 39.085938 131.023438 60.167969 101.082031 C 73.800781 81.664062 97.433594 56.984375 131.070312 39.566406 C 155.429688 27.042969 185.242188 18.152344 220.144531 18.152344 C 255.042969 18.152344 284.679688 27.042969 309.035156 39.566406 C 342.667969 56.984375 366.300781 81.664062 379.929688 101.082031 C 401.023438 131.023438 413.75 139.738281 421.5625 144.996094 C 422.472656 145.726562 423.382812 146.265625 424.109375 146.996094 L 424.835938 147.355469 L 424.835938 148.261719 C 424.835938 148.261719 426.652344 196.535156 393.386719 205.0625 C 382.113281 207.785156 371.566406 205.0625 361.9375 198.714844 C 352.484375 192.726562 343.941406 183.289062 336.128906 172.941406 C 335.398438 172.039062 334.484375 170.769531 333.394531 169.128906 C 321.039062 151.53125 282.863281 97.269531 220.144531 97.269531 "/>
<path style=" stroke:none;fill-rule:evenodd;fill:rgb(88.627451%,5.490196%,5.490196%);fill-opacity:1;" d="M 220.144531 89.464844 C 286.855469 89.464844 326.671875 146.085938 339.757812 164.777344 C 340.671875 166.226562 341.574219 167.496094 342.304688 168.40625 C 359.941406 191.8125 376.117188 201.429688 391.570312 197.4375 C 413.929688 191.8125 416.65625 161.148438 417.019531 151.886719 L 417.019531 151.523438 L 416.65625 151.351562 C 408.84375 145.898438 395.75 136.828125 373.570312 105.429688 C 360.484375 86.742188 310.308594 25.953125 220.144531 25.953125 C 129.792969 25.953125 79.804688 86.921875 66.53125 105.429688 C 44.539062 136.46875 30.902344 146.085938 23.445312 151.164062 L 23.269531 151.351562 L 23.269531 151.710938 C 23.445312 160.960938 26.359375 191.8125 48.535156 197.4375 C 63.984375 201.429688 80.167969 191.8125 97.804688 168.40625 C 98.527344 167.496094 99.4375 166.226562 100.53125 164.777344 C 113.4375 146.085938 153.246094 89.464844 220.144531 89.464844 "/>
<path style=" stroke:none;fill-rule:evenodd;fill:rgb(100%,94.901961%,0%);fill-opacity:1;" d="M 76.347656 115.597656 L 69.445312 123.941406 L 82.527344 150.800781 L 54.355469 141.726562 L 48.351562 148.800781 L 77.253906 172.941406 L 81.621094 167.859375 L 61.257812 150.800781 L 88.53125 159.511719 L 91.4375 156.246094 L 78.34375 130.113281 L 98.890625 147.351562 L 105.074219 139.730469 L 76.347656 115.597656 "/>
<path style=" stroke:none;fill-rule:evenodd;fill:rgb(100%,94.901961%,0%);fill-opacity:1;" d="M 112.707031 109.972656 L 106.164062 116.867188 L 99.613281 103.984375 Z M 97.617188 92.914062 L 91.074219 99.8125 L 109.253906 135.5625 L 113.609375 130.84375 L 108.707031 121.40625 L 117.429688 111.972656 L 127.246094 116.144531 L 134.523438 108.519531 L 97.617188 92.914062 "/>
<path style=" stroke:none;fill-rule:evenodd;fill:rgb(100%,94.901961%,0%);fill-opacity:1;" d="M 141.605469 58.984375 L 155.605469 81.484375 L 124.15625 69.683594 L 117.25 74.226562 L 137.0625 105.984375 L 144.695312 101.265625 L 130.523438 78.582031 L 162.332031 90.195312 L 169.058594 86.027344 L 149.246094 54.261719 L 141.605469 58.984375 "/>
<path style=" stroke:none;fill-rule:evenodd;fill:rgb(100%,94.901961%,0%);fill-opacity:1;" d="M 260.496094 77.308594 L 264.496094 65.878906 L 275.585938 69.683594 L 277.222656 64.96875 L 266.132812 61.15625 L 269.402344 51.359375 L 280.859375 55.351562 L 282.488281 50.636719 L 261.765625 43.371094 L 249.40625 78.941406 L 272.308594 86.742188 L 273.953125 82.027344 L 260.496094 77.308594 "/>
<path style=" stroke:none;fill-rule:evenodd;fill:rgb(100%,94.901961%,0%);fill-opacity:1;" d="M 324.851562 74.949219 L 321.394531 78.761719 L 329.394531 85.839844 L 307.578125 109.972656 L 314.851562 116.507812 L 336.664062 92.367188 L 344.484375 99.449219 L 347.753906 95.636719 L 324.851562 74.949219 "/>
<path style=" stroke:none;fill-rule:evenodd;fill:rgb(100%,94.901961%,0%);fill-opacity:1;" d="M 335.578125 131.382812 L 344.851562 123.578125 L 352.484375 132.472656 L 356.304688 129.203125 L 348.84375 120.3125 L 356.664062 113.597656 L 364.484375 122.855469 L 368.296875 119.773438 L 354.117188 102.894531 L 325.398438 127.03125 L 340.851562 145.539062 L 344.851562 142.273438 L 335.578125 131.382812 "/>
<path style=" stroke:none;fill-rule:evenodd;fill:rgb(100%,94.901961%,0%);fill-opacity:1;" d="M 379.207031 141.007812 C 381.753906 143.914062 381.753906 147.355469 378.839844 149.898438 C 375.75 152.621094 372.109375 152.074219 369.207031 148.988281 L 367.394531 146.996094 L 377.023438 138.46875 Z M 374.113281 159.335938 C 374.296875 159.519531 379.929688 162.421875 386.296875 156.613281 C 391.570312 151.890625 389.929688 145.363281 384.296875 139.191406 L 374.113281 127.757812 L 346.117188 152.984375 L 352.664062 160.242188 L 363.753906 150.265625 L 367.023438 153.890625 L 360.121094 169.679688 L 368.480469 176.394531 L 374.113281 159.335938 "/>
<path style=" stroke:none;fill-rule:evenodd;fill:rgb(100%,94.901961%,0%);fill-opacity:1;" d="M 232.683594 40.289062 L 232.5 55.710938 L 217.78125 55.351562 L 217.960938 40.105469 L 208.144531 39.925781 L 207.414062 77.308594 L 217.410156 77.492188 L 217.597656 60.429688 L 232.5 60.613281 L 232.140625 77.851562 L 241.957031 78.03125 L 242.679688 40.46875 L 232.683594 40.289062 "/>
<path style=" stroke:none;fill-rule:evenodd;fill:rgb(100%,94.901961%,0%);fill-opacity:1;" d="M 286.3125 96 C 293.222656 100.355469 301.042969 99.632812 304.492188 93.644531 C 307.21875 89.472656 307.21875 86.199219 304.132812 80.03125 C 303.21875 78.21875 302.128906 76.949219 301.402344 75.3125 C 300.132812 72.769531 298.859375 70.777344 299.949219 68.78125 C 301.402344 66.601562 304.3125 66.421875 307.039062 68.054688 C 309.949219 69.871094 311.222656 72.59375 311.765625 74.589844 L 316.308594 72.769531 C 314.851562 68.960938 312.855469 65.699219 308.132812 62.796875 C 300.132812 58.074219 293.585938 59.34375 290.859375 63.886719 C 288.136719 68.421875 288.859375 72.226562 290.859375 76.039062 C 291.042969 76.039062 292.3125 78.402344 293.042969 79.851562 C 294.859375 82.9375 296.859375 86.566406 295.402344 89.109375 C 293.585938 92.007812 290.496094 92.734375 287.585938 90.917969 C 283.585938 88.378906 282.675781 85.660156 281.953125 82.753906 L 277.039062 84.9375 C 278.132812 88.75 280.679688 92.734375 286.3125 96 "/>
<path style=" stroke:none;fill-rule:evenodd;fill:rgb(100%,94.901961%,0%);fill-opacity:1;" d="M 183.785156 42.28125 C 171.425781 44.824219 163.421875 53.898438 166.152344 66.054688 C 167.605469 72.769531 173.609375 84.929688 192.148438 80.9375 C 197.421875 80.027344 200.144531 77.851562 202.871094 75.3125 L 199.417969 71.316406 C 198.328125 72.769531 196.332031 74.941406 191.96875 75.851562 C 183.058594 77.671875 177.609375 70.40625 176.328125 64.058594 C 174.332031 54.800781 179.785156 48.273438 185.972656 47.003906 C 190.328125 46.09375 192.875 47.183594 194.695312 47.90625 L 195.789062 43.011719 C 192.875 41.917969 189.242188 41.015625 183.785156 42.28125 "/>
<path style=" stroke:none;fill-rule:evenodd;fill:rgb(100%,94.901961%,0%);fill-opacity:1;" d="M 383.019531 104.707031 C 382.65625 102.527344 381.753906 92.910156 385.382812 88.011719 C 388.835938 83.292969 391.75 84.929688 393.378906 85.652344 C 394.296875 85.832031 396.472656 87.285156 396.835938 90.195312 C 397.015625 91.640625 396.65625 93.820312 395.382812 95.457031 C 393.203125 98.542969 387.929688 100.535156 387.929688 100.535156 C 387.929688 100.535156 394.65625 113.597656 408.65625 126.488281 L 408.65625 135.195312 C 389.386719 116.6875 383.019531 104.707031 383.019531 104.707031 "/>
<path style=" stroke:none;fill-rule:evenodd;fill:rgb(100%,94.901961%,0%);fill-opacity:1;" d="M 392.835938 101.988281 C 394.65625 105.257812 399.5625 113.238281 411.746094 124.667969 C 413.742188 126.667969 418.835938 128.113281 421.5625 125.03125 C 422.652344 123.765625 423.382812 121.945312 423.195312 119.953125 C 423.195312 117.589844 421.742188 114.871094 420.289062 113.777344 C 417.921875 111.605469 407.375 101.082031 399.929688 92.910156 C 399.746094 94.367188 398.476562 96.910156 398.476562 96.910156 C 397.386719 98.355469 396.292969 100.355469 392.835938 101.988281 "/>
<path style=" stroke:none;fill-rule:evenodd;fill:rgb(100%,94.901961%,0%);fill-opacity:1;" d="M 32.351562 134.65625 L 32.351562 126.488281 C 46.53125 113.425781 53.078125 100.542969 53.078125 100.542969 C 53.078125 100.542969 47.984375 98.542969 45.617188 95.457031 C 44.535156 93.824219 43.992188 91.644531 44.164062 90.195312 C 44.714844 87.289062 46.890625 85.839844 47.621094 85.652344 C 49.257812 84.929688 52.347656 83.296875 55.621094 88.011719 C 59.253906 92.914062 58.351562 102.347656 57.800781 104.527344 C 57.800781 104.527344 51.261719 116.144531 32.351562 134.65625 "/>
<path style=" stroke:none;fill-rule:evenodd;fill:rgb(100%,94.901961%,0%);fill-opacity:1;" d="M 47.992188 101.988281 C 46.167969 105.257812 41.261719 113.238281 29.082031 124.667969 C 27.085938 126.667969 22.179688 128.113281 19.265625 125.03125 C 18.171875 123.765625 17.449219 121.945312 17.628906 119.953125 C 17.628906 117.589844 19.089844 114.871094 20.539062 113.777344 C 22.902344 111.605469 33.449219 101.082031 40.902344 92.910156 C 41.082031 94.367188 42.355469 96.910156 42.355469 96.910156 C 43.449219 98.355469 44.714844 100.355469 47.992188 101.988281 "/>
<path style=" stroke:none;fill-rule:evenodd;fill:rgb(88.627451%,5.490196%,5.490196%);fill-opacity:1;" d="M 8.722656 242.441406 C 8.722656 225.203125 22.722656 211.230469 40.171875 211.230469 C 57.445312 211.230469 71.441406 225.203125 71.441406 242.441406 C 71.441406 259.867188 57.445312 273.839844 40.171875 273.839844 C 22.722656 273.839844 8.722656 259.867188 8.722656 242.441406 "/>
<path style=" stroke:none;fill-rule:evenodd;fill:rgb(100%,94.901961%,0%);fill-opacity:1;" d="M 56.894531 219.945312 C 57.4375 220.308594 58.894531 221.398438 58.894531 221.398438 C 61.621094 223.757812 63.984375 226.660156 65.4375 230.105469 C 67.253906 234.28125 61.621094 240.816406 59.984375 242.265625 C 52.714844 248.980469 48.171875 248.980469 45.617188 249.34375 C 43.078125 249.703125 41.445312 248.074219 41.445312 246.074219 C 41.625 240.449219 45.617188 230.648438 46.898438 228.835938 C 47.621094 227.566406 48.894531 226.84375 48.894531 226.84375 C 51.621094 226.113281 54.167969 225.023438 55.441406 223.390625 C 56.894531 221.9375 56.894531 219.945312 56.894531 219.945312 Z M 30.714844 215.773438 C 33.625 214.863281 36.71875 214.140625 39.984375 214.140625 C 44.894531 214.140625 49.4375 215.042969 53.4375 217.589844 C 54.53125 218.3125 54.710938 219.035156 54.710938 220.125 C 54.710938 223.9375 48.894531 225.210938 45.082031 225.210938 C 41.261719 225.210938 36.53125 223.578125 33.082031 222.488281 C 29.8125 221.578125 29.082031 219.585938 29.082031 218.675781 C 29.082031 217.765625 29.625 216.132812 30.714844 215.773438 Z M 18.355469 260.773438 C 14.359375 256.960938 11.625 249.886719 11.625 242.449219 C 11.625 239.726562 11.988281 237.003906 12.71875 234.28125 C 12.71875 234.28125 13.449219 233.191406 14.171875 234.097656 C 14.535156 234.820312 15.265625 235.550781 15.808594 236.640625 C 16.355469 237.550781 19.445312 239.90625 19.082031 241.726562 C 17.992188 248.621094 19.082031 257.871094 19.265625 259.324219 C 19.625 260.957031 19.082031 261.679688 18.355469 260.773438 Z M 19.082031 237.003906 C 17.625 236.273438 15.996094 232.828125 15.445312 231.738281 C 15.082031 231.015625 15.082031 228.835938 15.625 227.933594 C 17.992188 223.757812 21.261719 220.125 25.441406 218.125 C 25.984375 217.953125 26.714844 217.953125 26.714844 219.035156 C 26.714844 219.757812 27.078125 220.847656 27.078125 221.578125 C 27.078125 222.125 27.445312 223.578125 26.535156 224.660156 C 25.625 225.75 21.804688 232.285156 20.898438 236.097656 C 20.71875 237.003906 20.539062 237.910156 19.082031 237.003906 Z M 40.53125 270.753906 C 40.351562 270.753906 40.171875 270.753906 39.984375 270.753906 C 34.714844 270.753906 29.082031 268.941406 25.625 266.941406 C 22.171875 264.949219 20.898438 256.058594 20.898438 251.519531 C 20.898438 236.820312 26.902344 227.933594 27.808594 226.113281 C 28.902344 224.480469 31.085938 224.300781 32.714844 224.660156 C 34.171875 225.023438 34.898438 225.382812 36.71875 225.933594 C 37.8125 226.300781 39.808594 226.660156 41.261719 227.023438 C 42.71875 227.382812 44.351562 227.75 43.441406 230.472656 C 42.355469 233.371094 39.261719 240.085938 38.898438 248.074219 C 38.535156 255.332031 39.441406 262.59375 41.074219 266.941406 C 42.167969 269.851562 42.167969 270.9375 40.53125 270.753906 Z M 47.984375 269.671875 C 46.347656 270.214844 45.617188 269.121094 44.894531 268.21875 C 41.988281 264.949219 41.261719 255.878906 41.261719 254.789062 C 41.261719 253.515625 41.625 252.246094 42.53125 252.246094 C 49.625 252.066406 54.53125 250.074219 59.253906 246.261719 C 63.796875 242.449219 65.808594 238.09375 66.167969 237.363281 C 66.710938 236.460938 67.617188 236.640625 67.804688 237.910156 C 67.980469 238.816406 68.347656 240.632812 68.347656 242.449219 C 68.347656 255.332031 59.617188 265.859375 47.984375 269.671875 "/>
<path style=" stroke:none;fill-rule:evenodd;fill:rgb(88.627451%,5.490196%,5.490196%);fill-opacity:1;" d="M 432.652344 242.441406 C 432.652344 225.203125 418.652344 211.230469 401.199219 211.230469 C 383.929688 211.230469 369.933594 225.203125 369.933594 242.441406 C 369.933594 259.867188 383.929688 273.839844 401.199219 273.839844 C 418.652344 273.839844 432.652344 259.867188 432.652344 242.441406 "/>
<path style=" stroke:none;fill-rule:evenodd;fill:rgb(100%,94.901961%,0%);fill-opacity:1;" d="M 385.933594 223.390625 C 387.199219 225.023438 389.746094 226.113281 392.472656 226.84375 C 392.472656 226.84375 393.753906 227.566406 394.476562 228.835938 C 395.75 230.648438 399.75 240.449219 399.929688 246.074219 C 399.929688 248.074219 398.296875 249.703125 395.75 249.34375 C 393.203125 248.980469 388.660156 248.980469 381.390625 242.265625 C 379.753906 240.816406 374.121094 234.28125 375.9375 230.105469 C 377.390625 226.660156 379.753906 223.757812 382.476562 221.398438 C 382.476562 221.398438 383.9375 220.308594 384.480469 219.945312 C 384.480469 219.945312 384.480469 221.9375 385.933594 223.390625 Z M 412.292969 218.667969 C 412.292969 219.585938 411.5625 221.578125 408.292969 222.488281 C 404.835938 223.570312 400.113281 225.210938 396.292969 225.210938 C 392.472656 225.210938 386.65625 223.933594 386.65625 220.125 C 386.65625 219.035156 386.839844 218.308594 387.929688 217.585938 C 391.929688 215.042969 396.472656 214.132812 401.386719 214.132812 C 404.65625 214.132812 407.75 214.863281 410.652344 215.773438 C 411.746094 216.132812 412.292969 217.765625 412.292969 218.667969 Z M 422.109375 259.324219 C 422.292969 257.871094 423.382812 248.621094 422.292969 241.71875 C 421.921875 239.90625 425.011719 237.542969 425.5625 236.640625 C 426.105469 235.550781 426.835938 234.820312 427.195312 234.097656 C 427.925781 233.191406 428.652344 234.28125 428.652344 234.28125 C 429.382812 237.003906 429.742188 239.726562 429.742188 242.441406 C 429.742188 249.886719 427.023438 256.960938 423.015625 260.773438 C 422.292969 261.679688 421.75 260.957031 422.109375 259.324219 Z M 420.46875 236.097656 C 419.566406 232.28125 415.746094 225.75 414.835938 224.660156 C 413.929688 223.570312 414.292969 222.125 414.292969 221.578125 C 414.292969 220.847656 414.652344 219.757812 414.652344 219.035156 C 414.652344 217.945312 415.382812 217.945312 415.925781 218.125 C 420.109375 220.125 423.382812 223.757812 425.742188 227.933594 C 426.292969 228.835938 426.292969 231.015625 425.929688 231.738281 C 425.378906 232.828125 423.746094 236.273438 422.292969 237.003906 C 420.832031 237.90625 420.65625 237.003906 420.46875 236.097656 Z M 400.292969 266.941406 C 401.929688 262.59375 402.839844 255.332031 402.476562 248.074219 C 402.117188 240.085938 398.839844 233.371094 397.933594 230.472656 C 397.015625 227.746094 398.660156 227.382812 400.113281 227.023438 C 401.566406 226.660156 403.570312 226.300781 404.65625 225.933594 C 406.472656 225.382812 407.203125 225.023438 408.65625 224.660156 C 410.289062 224.300781 412.476562 224.480469 413.5625 226.113281 C 414.472656 227.933594 420.46875 236.820312 420.46875 251.519531 C 420.46875 256.054688 419.203125 264.949219 415.746094 266.941406 C 412.292969 268.941406 406.660156 270.753906 401.386719 270.753906 C 401.199219 270.753906 401.023438 270.753906 400.835938 270.753906 C 399.203125 270.9375 399.203125 269.851562 400.292969 266.941406 Z M 373.027344 242.441406 C 373.027344 240.632812 373.390625 238.816406 373.570312 237.90625 C 373.753906 236.640625 374.664062 236.460938 375.207031 237.363281 C 375.574219 238.09375 377.570312 242.441406 382.113281 246.261719 C 386.839844 250.074219 391.75 252.066406 398.839844 252.246094 C 399.75 252.246094 400.113281 253.515625 400.113281 254.789062 C 400.113281 255.878906 399.386719 264.949219 396.472656 268.21875 C 395.75 269.121094 395.019531 270.214844 393.386719 269.664062 C 381.753906 265.851562 373.027344 255.332031 373.027344 242.441406 "/>
<path style=" stroke:none;fill-rule:evenodd;fill:rgb(100%,90.196078%,0%);fill-opacity:1;" d="M 370.113281 242.265625 C 370.113281 233.738281 373.570312 225.75 379.386719 220.125 C 385.023438 214.5 392.835938 210.867188 401.566406 210.867188 C 410.289062 210.867188 418.109375 214.5 423.746094 220.125 C 429.5625 225.75 433.011719 233.738281 433.011719 242.265625 C 433.011719 250.976562 429.5625 258.960938 423.746094 264.585938 C 418.109375 270.214844 410.289062 273.84375 401.566406 273.84375 C 392.835938 273.84375 385.023438 270.214844 379.386719 264.585938 C 373.570312 258.960938 370.113281 250.976562 370.113281 242.265625 Z M 370.480469 242.265625 C 370.480469 250.976562 373.933594 258.78125 379.566406 264.40625 C 385.203125 270.03125 393.015625 273.484375 401.566406 273.484375 C 410.109375 273.484375 417.921875 270.03125 423.558594 264.40625 C 429.195312 258.78125 432.652344 250.976562 432.652344 242.265625 C 432.652344 233.738281 429.195312 225.933594 423.558594 220.308594 C 417.921875 214.679688 410.109375 211.238281 401.566406 211.238281 C 393.015625 211.238281 385.203125 214.679688 379.566406 220.308594 C 373.933594 225.933594 370.480469 233.738281 370.480469 242.265625 "/>
</g>
</svg>
